# xmcd
#
# Track frame offsets:
#	150
#	7906
#	17549
#	25526
#	35944
#	45892
#	55029
#	64366
#	75641
#	84698
#	96237
#	107396
#	117015
#	127998
#	139758
#	151503
#	162864
#	174519
#	188431
#	199659
#	208473
#	221113
#	233645
#	246330
#	261317
#	275718
#
# Disc length: 3884 seconds
#
# Revision: 1
# Processed by: cddbd v1.5.2PL0 Copyright (c) Steve Scherf et al.
# Submitted via: audiograbber 1.83.01
#
DISCID=590f2a1a
DTITLE=Dolly Parton - Dolly (Box Ser)(CD 1)
DYEAR=2009
DGENRE=Country
TTITLE0=Puppy Love
TTITLE1=Girl Left Alone
TTITLE2=Gonna Hurry (As Slow As I Can)(Demo, Previously Unreleased)
TTITLE3=It's Sure Gonna Hurt (With The Merry Melody Singers)
TTITLE4=The Love You Gave (With The Merry Melody Singers)
TTITLE5=Nobody But You (Previously Unreleased)(With The Merry Melody Singers)
TTITLE6=Busy Signal
TTITLE7=Don't Drop Out
TTITLE8=I've You Known All My Life (Previously Unreleased)
TTITLE9=Put It Off Until Tomorrow (With Bill Phillips)
TTITLE10=Dumb Blonde
TTITLE11=Something Fishy
TTITLE12=I Couldn't Wait Forever
TTITLE13=I'm Not Worth The Tears
TTITLE14=The Last Thing On My Mind (With Porter Wagoner)
TTITLE15=False Eyelashes
TTITLE16=The Bridge
TTITLE17=Just Because I'm A Woman
TTITLE18=Holdin' On To Nothin' (With Porter Wagoner)
TTITLE19=We'll Get Ahead Someday (With Porter Wagoner)
TTITLE20=Jeannie's Afraid Of The Dark (With Porter Wagoner)
TTITLE21=In The Good Old Days (When Times Were Bad)
TTITLE22=Daddy
TTITLE23=Evening Shade
TTITLE24=Gypsy, Joe And Me
TTITLE25=My Blue Ridge Mountain Boy
EXTD=
EXTT0=
EXTT1=
EXTT2=
EXTT3=
EXTT4=
EXTT5=
EXTT6=
EXTT7=
EXTT8=
EXTT9=
EXTT10=
EXTT11=
EXTT12=
EXTT13=
EXTT14=
EXTT15=
EXTT16=
EXTT17=
EXTT18=
EXTT19=
EXTT20=
EXTT21=
EXTT22=
EXTT23=
EXTT24=
EXTT25=
PLAYORDER=
